<?xml version="1.0" encoding="UTF-8" standalone="no"?>
<!DOCTYPE svg PUBLIC "-//W3C//DTD SVG 1.1//EN"
 "http://www.w3.org/Graphics/SVG/1.1/DTD/svg11.dtd">
<!-- Generated by graphviz version 8.0.5 (20230430.1635)
 -->
<!-- Title: g Pages: 1 -->
<svg width="932pt" height="348pt"
 viewBox="0.00 0.00 932.23 348.00" xmlns="http://www.w3.org/2000/svg" xmlns:xlink="http://www.w3.org/1999/xlink">
<g id="graph0" class="graph" transform="scale(1 1) rotate(0) translate(4 344)">
<title>g</title>
<polygon fill="white" stroke="none" points="-4,4 -4,-344 928.23,-344 928.23,4 -4,4"/>
<g id="clust1" class="cluster">
<title>cluster_package_Features</title>
<polygon fill="none" stroke="black" points="8,-93 8,-332 673.11,-332 673.11,-93 8,-93"/>
<text text-anchor="middle" x="340.56" y="-314.7" font-family="Times,serif" font-size="14.00">Features</text>
</g>
<g id="clust2" class="cluster">
<title>cluster_package_swiftdependenciesadditions</title>
<polygon fill="none" stroke="black" points="246.51,-8 246.51,-85 460.41,-85 460.41,-8 246.51,-8"/>
<text text-anchor="middle" x="353.46" y="-67.7" font-family="Times,serif" font-size="14.00">swift&#45;dependencies&#45;additions</text>
</g>
<g id="clust3" class="cluster">
<title>cluster_package_swiftcomposablearchitecture</title>
<polygon fill="none" stroke="black" points="693.11,-131 693.11,-208 916.23,-208 916.23,-131 693.11,-131"/>
<text text-anchor="middle" x="804.67" y="-190.7" font-family="Times,serif" font-size="14.00">swift&#45;composable&#45;architecture</text>
</g>
<!-- packageProduct_Start -->
<g id="node1" class="node">
<title>packageProduct_Start</title>
<ellipse fill="none" stroke="black" cx="44.32" cy="-173" rx="28.32" ry="18"/>
<text text-anchor="middle" x="44.32" y="-167.95" font-family="Times,serif" font-size="14.00">Start</text>
</g>
<!-- target_Start -->
<g id="node2" class="node">
<title>target_Start</title>
<polygon fill="none" stroke="black" points="190.57,-191 136.57,-191 136.57,-155 190.57,-155 190.57,-191"/>
<text text-anchor="middle" x="163.57" y="-167.95" font-family="Times,serif" font-size="14.00">Start</text>
</g>
<!-- packageProduct_Start&#45;&gt;target_Start -->
<g id="edge1" class="edge">
<title>packageProduct_Start&#45;&gt;target_Start</title>
<path fill="none" stroke="black" d="M73.11,-173C88.77,-173 108.55,-173 125.52,-173"/>
<polygon fill="black" stroke="black" points="125.19,-176.5 135.19,-173 125.19,-169.5 125.19,-176.5"/>
</g>
<!-- target_Onboarding -->
<g id="node4" class="node">
<title>target_Onboarding</title>
<polygon fill="none" stroke="black" points="393.71,-285 313.21,-285 313.21,-249 393.71,-249 393.71,-285"/>
<text text-anchor="middle" x="353.46" y="-261.95" font-family="Times,serif" font-size="14.00">Onboarding</text>
</g>
<!-- target_Start&#45;&gt;target_Onboarding -->
<g id="edge6" class="edge">
<title>target_Start&#45;&gt;target_Onboarding</title>
<path fill="none" stroke="black" d="M190.87,-182.98C200.22,-187.32 210.42,-193.02 218.51,-200 234.94,-214.18 228.66,-227.66 246.51,-240 262.82,-251.28 283.47,-257.85 302.2,-261.67"/>
<polygon fill="black" stroke="black" points="301.49,-265.28 311.95,-263.62 302.74,-258.4 301.49,-265.28"/>
</g>
<!-- target_Welcome -->
<g id="node6" class="node">
<title>target_Welcome</title>
<polygon fill="none" stroke="black" points="563.26,-216 494.76,-216 494.76,-180 563.26,-180 563.26,-216"/>
<text text-anchor="middle" x="529.01" y="-192.95" font-family="Times,serif" font-size="14.00">Welcome</text>
</g>
<!-- target_Start&#45;&gt;target_Welcome -->
<g id="edge7" class="edge">
<title>target_Start&#45;&gt;target_Welcome</title>
<path fill="none" stroke="black" d="M190.78,-173C242.5,-173.24 361.27,-175.07 460.41,-186 467.98,-186.83 475.98,-188 483.73,-189.28"/>
<polygon fill="black" stroke="black" points="482.99,-192.88 493.44,-191.14 484.19,-185.98 482.99,-192.88"/>
</g>
<!-- target_Main -->
<g id="node8" class="node">
<title>target_Main</title>
<polygon fill="none" stroke="black" points="380.46,-137 326.46,-137 326.46,-101 380.46,-101 380.46,-137"/>
<text text-anchor="middle" x="353.46" y="-113.95" font-family="Times,serif" font-size="14.00">Main</text>
</g>
<!-- target_Start&#45;&gt;target_Main -->
<g id="edge8" class="edge">
<title>target_Start&#45;&gt;target_Main</title>
<path fill="none" stroke="black" d="M190.7,-165.49C223.28,-156.13 279.16,-140.07 315.95,-129.49"/>
<polygon fill="black" stroke="black" points="316.61,-132.66 325.25,-126.53 314.68,-125.93 316.61,-132.66"/>
</g>
<!-- target_Utilities -->
<g id="node10" class="node">
<title>target_Utilities</title>
<polygon fill="none" stroke="black" points="665.11,-221 605.61,-221 605.61,-185 665.11,-185 665.11,-221"/>
<text text-anchor="middle" x="635.36" y="-197.95" font-family="Times,serif" font-size="14.00">Utilities</text>
</g>
<!-- target_Start&#45;&gt;target_Utilities -->
<g id="edge9" class="edge">
<title>target_Start&#45;&gt;target_Utilities</title>
<path fill="none" stroke="black" d="M190.67,-168.59C255.78,-158.49 430.23,-137.09 569.61,-171 578.36,-173.13 587.3,-176.58 595.63,-180.45"/>
<polygon fill="black" stroke="black" points="593.92,-184 604.43,-185.31 597.03,-177.73 593.92,-184"/>
</g>
<!-- packageProduct_DependenciesAdditions -->
<g id="node12" class="node">
<title>packageProduct_DependenciesAdditions</title>
<ellipse fill="none" stroke="black" cx="353.46" cy="-34" rx="98.95" ry="18"/>
<text text-anchor="middle" x="353.46" y="-28.95" font-family="Times,serif" font-size="14.00">DependenciesAdditions</text>
</g>
<!-- target_Start&#45;&gt;packageProduct_DependenciesAdditions -->
<g id="edge10" class="edge">
<title>target_Start&#45;&gt;packageProduct_DependenciesAdditions</title>
<path fill="none" stroke="black" d="M190.92,-163.92C200.5,-159.63 210.84,-153.73 218.51,-146 238.39,-125.97 226.77,-109.18 246.51,-89 260.51,-74.69 279.03,-63.34 296.67,-54.77"/>
<polygon fill="black" stroke="black" points="297.74,-57.66 305.34,-50.29 294.8,-51.31 297.74,-57.66"/>
</g>
<!-- packageProduct_Onboarding -->
<g id="node3" class="node">
<title>packageProduct_Onboarding</title>
<ellipse fill="none" stroke="black" cx="163.57" cy="-281" rx="54.93" ry="18"/>
<text text-anchor="middle" x="163.57" y="-275.95" font-family="Times,serif" font-size="14.00">Onboarding</text>
</g>
<!-- packageProduct_Onboarding&#45;&gt;target_Onboarding -->
<g id="edge2" class="edge">
<title>packageProduct_Onboarding&#45;&gt;target_Onboarding</title>
<path fill="none" stroke="black" d="M217.41,-277.06C243.91,-275.09 275.84,-272.71 302,-270.76"/>
<polygon fill="black" stroke="black" points="302.11,-274.19 311.82,-269.95 301.59,-267.21 302.11,-274.19"/>
</g>
<!-- target_Onboarding&#45;&gt;target_Welcome -->
<g id="edge11" class="edge">
<title>target_Onboarding&#45;&gt;target_Welcome</title>
<path fill="none" stroke="black" d="M394.15,-259.9C414.45,-255.53 439.28,-249 460.41,-240 466.89,-237.24 478.94,-230.01 491.09,-222.31"/>
<polygon fill="black" stroke="black" points="492.78,-224.74 499.31,-216.4 489,-218.85 492.78,-224.74"/>
</g>
<!-- packageProduct_Welcome -->
<g id="node5" class="node">
<title>packageProduct_Welcome</title>
<ellipse fill="none" stroke="black" cx="353.46" cy="-213" rx="46.75" ry="18"/>
<text text-anchor="middle" x="353.46" y="-207.95" font-family="Times,serif" font-size="14.00">Welcome</text>
</g>
<!-- packageProduct_Welcome&#45;&gt;target_Welcome -->
<g id="edge3" class="edge">
<title>packageProduct_Welcome&#45;&gt;target_Welcome</title>
<path fill="none" stroke="black" d="M399.6,-209.1C425.41,-206.87 457.66,-204.08 483.38,-201.86"/>
<polygon fill="black" stroke="black" points="483.67,-205.26 493.33,-200.91 483.07,-198.29 483.67,-205.26"/>
</g>
<!-- target_Welcome&#45;&gt;target_Utilities -->
<g id="edge12" class="edge">
<title>target_Welcome&#45;&gt;target_Utilities</title>
<path fill="none" stroke="black" d="M563.6,-199.61C573.49,-200.08 584.41,-200.61 594.64,-201.1"/>
<polygon fill="black" stroke="black" points="594.24,-204.63 604.4,-201.61 594.58,-197.64 594.24,-204.63"/>
</g>
<!-- packageProduct_ComposableArchitecture -->
<g id="node13" class="node">
<title>packageProduct_ComposableArchitecture</title>
<ellipse fill="none" stroke="black" cx="804.67" cy="-157" rx="103.56" ry="18"/>
<text text-anchor="middle" x="804.67" y="-151.95" font-family="Times,serif" font-size="14.00">ComposableArchitecture</text>
</g>
<!-- target_Welcome&#45;&gt;packageProduct_ComposableArchitecture -->
<g id="edge13" class="edge">
<title>target_Welcome&#45;&gt;packageProduct_ComposableArchitecture</title>
<path fill="none" stroke="black" d="M563.55,-186.77C576.56,-182.81 591.65,-178.68 605.61,-176 634.47,-170.47 666.01,-166.52 695.27,-163.7"/>
<polygon fill="black" stroke="black" points="695.31,-167.12 704.94,-162.72 694.66,-160.15 695.31,-167.12"/>
</g>
<!-- packageProduct_Main -->
<g id="node7" class="node">
<title>packageProduct_Main</title>
<ellipse fill="none" stroke="black" cx="163.57" cy="-119" rx="30.88" ry="18"/>
<text text-anchor="middle" x="163.57" y="-113.95" font-family="Times,serif" font-size="14.00">Main</text>
</g>
<!-- packageProduct_Main&#45;&gt;target_Main -->
<g id="edge4" class="edge">
<title>packageProduct_Main&#45;&gt;target_Main</title>
<path fill="none" stroke="black" d="M194.76,-119C227.52,-119 279.87,-119 315.17,-119"/>
<polygon fill="black" stroke="black" points="314.99,-122.5 324.99,-119 314.99,-115.5 314.99,-122.5"/>
</g>
<!-- target_Main&#45;&gt;packageProduct_ComposableArchitecture -->
<g id="edge14" class="edge">
<title>target_Main&#45;&gt;packageProduct_ComposableArchitecture</title>
<path fill="none" stroke="black" d="M380.88,-121.24C441.91,-126.4 595.42,-139.38 699.67,-148.2"/>
<polygon fill="black" stroke="black" points="699.28,-151.77 709.54,-149.12 699.87,-144.79 699.28,-151.77"/>
</g>
<!-- packageProduct_Utilities -->
<g id="node9" class="node">
<title>packageProduct_Utilities</title>
<ellipse fill="none" stroke="black" cx="529.01" cy="-252" rx="40.6" ry="18"/>
<text text-anchor="middle" x="529.01" y="-246.95" font-family="Times,serif" font-size="14.00">Utilities</text>
</g>
<!-- packageProduct_Utilities&#45;&gt;target_Utilities -->
<g id="edge5" class="edge">
<title>packageProduct_Utilities&#45;&gt;target_Utilities</title>
<path fill="none" stroke="black" d="M557.7,-239C569.33,-233.54 583.05,-227.1 595.65,-221.18"/>
<polygon fill="black" stroke="black" points="596.89,-224 604.45,-216.58 593.91,-217.66 596.89,-224"/>
</g>
<!-- target_Utilities&#45;&gt;packageProduct_ComposableArchitecture -->
<g id="edge15" class="edge">
<title>target_Utilities&#45;&gt;packageProduct_ComposableArchitecture</title>
<path fill="none" stroke="black" d="M665.51,-194.99C685.25,-189.56 712.17,-182.16 737,-175.33"/>
<polygon fill="black" stroke="black" points="737.77,-178.47 746.49,-172.45 735.92,-171.72 737.77,-178.47"/>
</g>
<!-- target_OnboardingTests -->
<g id="node11" class="node">
<title>target_OnboardingTests</title>
<polygon fill="none" stroke="black" points="218.07,-245 109.07,-245 109.07,-209 218.07,-209 218.07,-245"/>
<text text-anchor="middle" x="163.57" y="-221.95" font-family="Times,serif" font-size="14.00">OnboardingTests</text>
</g>
<!-- target_OnboardingTests&#45;&gt;target_Onboarding -->
<g id="edge16" class="edge">
<title>target_OnboardingTests&#45;&gt;target_Onboarding</title>
<path fill="none" stroke="black" d="M218.41,-238.46C244.79,-244.08 276.36,-250.8 302.24,-256.31"/>
<polygon fill="black" stroke="black" points="301.43,-259.93 311.94,-258.59 302.89,-253.08 301.43,-259.93"/>
</g>
</g>
</svg>
